<svg width="256" height="256" viewBox="0 0 256 256" xmlns="http://www.w3.org/2000/svg">
  <rect width="256" height="256" fill="#242938" rx="60"/>
  <g transform="matrix(1.025888, 0, 0, 1.025888, -3.313973, -3.313867)">
    <path fill="#18B6F6" d="M 195.316 222.388 L 161.475 188.722 L 160.998 188.806 L 160.998 188.448 L 89.034 117.281 L 106.802 100.157 L 96.351 40.281 L 46.903 101.626 C 38.508 110.107 36.893 123.969 42.976 134.146 L 73.88 185.445 C 78.606 193.31 86.03 198.369 96.398 197.997 C 118.345 197.216 127.992 197.216 127.992 197.216 L 195.3 222.372 L 195.316 222.396 L 195.316 222.388 Z M 195.316 222.388"/>
    <path fill="#AC7EF4" d="M 212.038 128.04 C 216.907 117.993 218.65 109.204 213.843 100.368 L 207.001 87.78 L 203.452 81.318 L 202.074 78.8 L 201.944 78.944 L 183.333 46.658 C 178.641 38.494 169.905 33.502 160.489 33.606 L 144.169 34.07 L 95.449 34.198 C 86.252 34.259 77.764 39.15 73.1 47.076 L 43.5 105.867 L 96.474 39.962 L 165.966 116.38 L 153.527 128.982 L 160.953 188.767 L 161.058 188.631 L 161.058 188.806 L 160.953 188.806 L 161.097 188.949 L 166.89 194.591 L 194.923 221.97 C 196.098 223.108 198.01 221.743 197.228 220.34 L 179.896 186.243"/>
    <path fill="#FFF" d="M 166.131 116.188 L 96.458 40.158 L 106.356 99.693 L 88.624 116.902 L 160.823 188.654 L 154.317 129.089 L 166.133 116.211 L 166.131 116.188 Z M 166.131 116.188"/>
  </g>
</svg>