<svg xmlns="http://www.w3.org/2000/svg" width="256" height="256" fill="none"><rect width="256" height="256" fill="#F4F2ED" rx="60"/><path fill="#304060" d="M81.32 62.284c0 10.647-8.357 19.284-18.657 19.284C52.357 81.568 44 72.931 44 62.284 44 51.631 52.357 43 62.663 43c10.3 0 18.657 8.63 18.657 19.284M81.32 127.999c0 10.647-8.357 19.284-18.657 19.284-10.306 0-18.663-8.637-18.663-19.284 0-10.653 8.357-19.284 18.663-19.284 10.3 0 18.657 8.631 18.657 19.284M81.32 193.715c0 10.647-8.357 19.285-18.657 19.285C52.357 213 44 204.362 44 193.715s8.357-19.284 18.663-19.284c10.3 0 18.657 8.638 18.657 19.284M146.435 127.999c0 10.647-8.35 19.284-18.656 19.284-10.307 0-18.664-8.637-18.664-19.284 0-10.653 8.357-19.284 18.664-19.284 10.306 0 18.656 8.631 18.656 19.284M146.435 62.284c0 10.647-8.35 19.284-18.656 19.284-10.307 0-18.664-8.637-18.664-19.284 0-10.653 8.357-19.284 18.664-19.284 10.306 0 18.656 8.63 18.656 19.284M211.558 127.999c0 10.647-8.357 19.284-18.664 19.284-10.306 0-18.656-8.637-18.656-19.284 0-10.653 8.35-19.284 18.656-19.284 10.307 0 18.664 8.631 18.664 19.284M211.558 62.284c0 10.647-8.357 19.284-18.664 19.284-10.306 0-18.656-8.637-18.656-19.284 0-10.653 8.35-19.284 18.656-19.284 10.307 0 18.664 8.63 18.664 19.284M211.558 193.715c0 10.647-8.357 19.285-18.664 19.285-10.306 0-18.656-8.638-18.656-19.285s8.35-19.284 18.656-19.284c10.307 0 18.664 8.638 18.664 19.284M146.436 193.715c0 10.647-8.351 19.285-18.657 19.285s-18.664-8.638-18.664-19.285 8.358-19.284 18.664-19.284 18.657 8.638 18.657 19.284"/></svg>