<svg xmlns="http://www.w3.org/2000/svg" width="256" height="256" fill="none"><rect width="256" height="256" fill="#E43717" rx="60"/><g fill-rule="evenodd" clip-path="url(#a)" clip-rule="evenodd"><path fill="url(#b)" d="M177.454 156.477 74.685 217.5l133.066-9.029L218 74.294z"/><path fill="url(#c)" d="m207.969 208.379-11.437-78.939-31.153 41.137z"/><path fill="url(#d)" d="m208.124 208.379-83.79-6.577-49.204 15.527z"/><path fill="url(#e)" d="m75.248 217.346 20.932-68.573-46.06 9.849z"/><path fill="url(#f)" d="m165.371 170.804-19.26-75.442-55.119 51.666z"/><path fill="url(#g)" d="m213.63 96.425-52.102-42.554-14.509 46.906z"/><path fill="url(#h)" d="m189.264 38.7-30.643 16.934-19.333-17.162z"/><path fill="url(#i)" d="m38 181.624 12.837-23.412-10.384-27.891z"/><path fill="#fff" d="m39.763 129.44 10.447 29.635 45.398-10.185 51.829-48.168 14.627-46.46L139.033 38 99.877 52.654C87.54 64.128 63.6 86.832 62.738 87.259c-.854.436-15.807 28.699-22.975 42.181"/><path fill="url(#j)" d="M76.448 76.202c26.736-26.51 61.205-42.172 74.432-28.826 13.22 13.346-.799 45.779-27.536 72.279-26.737 26.501-60.778 43.027-73.997 29.681-13.228-13.337.364-46.633 27.1-73.134"/><path fill="url(#k)" d="m75.248 217.319 20.768-68.792 68.973 22.159c-24.938 23.384-52.674 43.153-89.74 46.633"/><path fill="url(#l)" d="m147.528 100.586 17.707 70.136c20.831-21.904 39.528-45.452 48.685-74.578z"/><path fill="url(#m)" d="M213.739 96.498c7.086-21.386 8.722-52.066-24.694-57.762L161.627 53.88z"/><path fill="#9E1209" d="M38 181.315c.981 35.296 26.446 35.822 37.294 36.132L50.237 158.93z"/><path fill="url(#n)" d="M147.627 100.695c16.008 9.839 48.269 29.599 48.923 29.962 1.017.573 13.909-21.74 16.835-34.35z"/><path fill="url(#o)" d="m95.99 148.527 27.763 53.565c16.416-8.903 29.272-19.75 41.046-31.37z"/><path fill="url(#p)" d="m50.128 159.002-3.933 46.842c7.422 10.139 17.633 11.02 28.345 10.23-7.75-19.287-23.23-57.853-24.412-57.072"/><path fill="url(#q)" d="m161.464 53.999 55.155 7.74c-2.943-12.474-11.983-20.523-27.391-23.04z"/></g><defs><linearGradient id="b" x1="196.145" x2="158.172" y1="233.825" y2="166.782" gradientUnits="userSpaceOnUse"><stop stop-color="#FB7655"/><stop offset=".41" stop-color="#E42B1E"/><stop offset=".99" stop-color="#900"/><stop offset="1" stop-color="#900"/></linearGradient><linearGradient id="c" x1="215.061" x2="166.123" y1="177.506" y2="144.666" gradientUnits="userSpaceOnUse"><stop stop-color="#871101"/><stop offset=".99" stop-color="#911209"/><stop offset="1" stop-color="#911209"/></linearGradient><linearGradient id="d" x1="175.905" x2="126.969" y1="235.857" y2="203.017" gradientUnits="userSpaceOnUse"><stop stop-color="#871101"/><stop offset=".99" stop-color="#911209"/><stop offset="1" stop-color="#911209"/></linearGradient><linearGradient id="e" x1="73.155" x2="80.742" y1="153.734" y2="203.038" gradientUnits="userSpaceOnUse"><stop stop-color="#fff"/><stop offset=".23" stop-color="#E57252"/><stop offset=".46" stop-color="#DE3B20"/><stop offset=".99" stop-color="#A60003"/><stop offset="1" stop-color="#A60003"/></linearGradient><linearGradient id="f" x1="125.336" x2="128.131" y1="107.695" y2="158.014" gradientUnits="userSpaceOnUse"><stop stop-color="#fff"/><stop offset=".23" stop-color="#E4714E"/><stop offset=".56" stop-color="#BE1A0D"/><stop offset=".99" stop-color="#A80D00"/><stop offset="1" stop-color="#A80D00"/></linearGradient><linearGradient id="g" x1="171.642" x2="180.01" y1="61.186" y2="97.249" gradientUnits="userSpaceOnUse"><stop stop-color="#fff"/><stop offset=".18" stop-color="#E46342"/><stop offset=".4" stop-color="#C82410"/><stop offset=".99" stop-color="#A80D00"/><stop offset="1" stop-color="#A80D00"/></linearGradient><linearGradient id="h" x1="146.089" x2="182.15" y1="48.485" y2="30.455" gradientUnits="userSpaceOnUse"><stop stop-color="#fff"/><stop offset=".54" stop-color="#C81F11"/><stop offset=".99" stop-color="#BF0905"/><stop offset="1" stop-color="#BF0905"/></linearGradient><linearGradient id="i" x1="41.546" x2="44.514" y1="141.164" y2="170.879" gradientUnits="userSpaceOnUse"><stop stop-color="#fff"/><stop offset=".31" stop-color="#DE4024"/><stop offset=".99" stop-color="#BF190B"/><stop offset="1" stop-color="#BF190B"/></linearGradient><linearGradient id="j" x1="21.142" x2="160.661" y1="178.912" y2="35.448" gradientUnits="userSpaceOnUse"><stop stop-color="#BD0012"/><stop offset=".07" stop-color="#fff"/><stop offset=".17" stop-color="#fff"/><stop offset=".27" stop-color="#C82F1C"/><stop offset=".33" stop-color="#820C01"/><stop offset=".46" stop-color="#A31601"/><stop offset=".72" stop-color="#B31301"/><stop offset=".99" stop-color="#E82609"/><stop offset="1" stop-color="#E82609"/></linearGradient><linearGradient id="k" x1="128.009" x2="85.985" y1="193.383" y2="183.011" gradientUnits="userSpaceOnUse"><stop stop-color="#8C0C01"/><stop offset=".54" stop-color="#990C00"/><stop offset=".99" stop-color="#A80D0E"/><stop offset="1" stop-color="#A80D0E"/></linearGradient><linearGradient id="l" x1="200.19" x2="162.857" y1="142.944" y2="109.484" gradientUnits="userSpaceOnUse"><stop stop-color="#7E110B"/><stop offset=".99" stop-color="#9E0C00"/><stop offset="1" stop-color="#9E0C00"/></linearGradient><linearGradient id="m" x1="213.906" x2="195.31" y1="81.55" y2="61.67" gradientUnits="userSpaceOnUse"><stop stop-color="#79130D"/><stop offset=".99" stop-color="#9E120B"/><stop offset="1" stop-color="#9E120B"/></linearGradient><linearGradient id="p" x1="62.229" x2="47.075" y1="217.279" y2="165.863" gradientUnits="userSpaceOnUse"><stop stop-color="#8B2114"/><stop offset=".43" stop-color="#9E100A"/><stop offset=".99" stop-color="#B3100C"/><stop offset="1" stop-color="#B3100C"/></linearGradient><linearGradient id="q" x1="178.491" x2="212.466" y1="46.901" y2="61.899" gradientUnits="userSpaceOnUse"><stop stop-color="#B31000"/><stop offset=".44" stop-color="#910F08"/><stop offset=".99" stop-color="#791C12"/><stop offset="1" stop-color="#791C12"/></linearGradient><radialGradient id="n" cx="0" cy="0" r="1" gradientTransform="translate(168.67 110.124)scale(45.7496)" gradientUnits="userSpaceOnUse"><stop stop-color="#A80D00"/><stop offset=".99" stop-color="#7E0E08"/><stop offset="1" stop-color="#7E0E08"/></radialGradient><radialGradient id="o" cx="0" cy="0" r="1" gradientTransform="translate(105.313 170.414)scale(60.818)" gradientUnits="userSpaceOnUse"><stop stop-color="#A30C00"/><stop offset=".99" stop-color="#800E08"/><stop offset="1" stop-color="#800E08"/></radialGradient><clipPath id="a"><path fill="#fff" d="M38 38h180v179.5H38z"/></clipPath></defs></svg>