<svg xmlns="http://www.w3.org/2000/svg" width="256" height="256" fill="none"><rect width="256" height="256" fill="#242938" rx="60"/><g fill="#F7FAFC" fill-rule="evenodd"><path fill-rule="nonzero" d="M128 19.547C68.211 19.547 19.547 68.211 19.547 128S68.211 236.453 128 236.453 236.453 187.789 236.453 128 187.789 19.547 127.998 19.547zm0 18.11c50.002 0 90.344 40.341 90.344 90.343S178.002 218.344 128 218.344 37.656 178.004 37.656 128 77.998 37.658 128 37.658" color="#F7FAFC"/><path d="M101.61 122.514c23.75-19.401 46.98-39.477 71.246-58.312-12.727 19.559-25.818 38.858-38.546 58.415-10.916.051-21.834.051-32.7-.103m20.076 10.813c10.97 0 21.886 0 32.802.156-23.903 19.3-47.03 39.53-71.348 58.312 12.728-19.56 25.818-38.91 38.546-58.468"/></g></svg>